<?xml version="1.0" encoding="UTF-8"?>
<svg id="text" xmlns="http://www.w3.org/2000/svg" version="1.1" viewBox="0 0 200 47.48">
  <!-- Generator: Adobe Illustrator 29.6.1, SVG Export Plug-In . SVG Version: 2.1.1 Build 9)  -->
  <path d="M145.29,47.36c-13.48,0-24.41-9.9-24.41-23.62S131.75.06,145.53.06c8.75,0,15.54,2.49,21.68,8.8l-2.79,2.98c-5.22-5.34-11.05-7.65-18.52-7.65-11.6,0-20.89,7.53-20.89,19.55s9.35,19.43,20.52,19.43c7.47,0,13.6-3.16,19.01-8.14l2.85,3.03c-6.38,5.95-13.3,9.29-22.1,9.29h0Z"/>
  <path d="M187.13,24.44c-6.74,0-12.88-4.19-12.88-11.42s6.32-11.05,12.69-11.05,13.06,4.25,13.06,11.35-6.25,11.11-12.87,11.11h0ZM187.01,5.49c-4.43,0-9.17,2.67-9.17,7.59s4.61,7.83,9.29,7.83,9.23-2.49,9.23-7.59-4.73-7.83-9.35-7.83Z"/>
  <path d="M23.01,47.48c-9.77,0-16.21-2.79-23.01-9.77l3.83-3.77c5.95,5.89,10.68,8.14,19.13,8.14,5.58,0,16.15-1.64,16.15-9.11,0-5.46-5.65-7.65-10.26-7.71l-9.59-.12c-5.71-.06-8.5-.73-11.23-2.49-2.98-1.94-4.68-5.46-4.68-8.99C3.35,3.64,14.64,0,22.9,0c7.41,0,13.3,2.19,19.19,6.68l-3.34,4.19c-5.22-3.7-9.59-5.47-16.03-5.47-4.86,0-13.96,1.94-13.96,8.26,0,1.88,1.03,3.76,2.67,4.67,2.07,1.09,3.46,1.4,9.23,1.46l6.74.06c3.16,0,6.38.3,9.29,1.52,4.68,1.94,7.83,6.74,7.83,11.78,0,10.99-12.63,14.33-21.49,14.33h-.02Z"/>
  <path d="M80.09,46.32h-22.95V.96h22.34c16.58,0,21.01,16.21,21.01,22.83,0,11.23-8.56,22.53-20.4,22.53ZM79.48,6.31h-17v34.67h17.61c8.93,0,15.06-9.11,15.06-17.36,0-9.65-6.62-17.3-15.67-17.3h0Z"/>
  <path d="M176.38,32.95v-3.46h21.49v3.46h-21.49Z"/>
  <path d="M49.08,33.49v-4.61h21.47v4.61h-21.47Z"/>
</svg>